<mxfile host="app.diagrams.net" modified="2023-05-20T15:11:09.201Z" agent="Mozilla/5.0 (Windows NT 10.0; Win64; x64) AppleWebKit/537.36 (KHTML, like Gecko) Chrome/112.0.0.0 Safari/537.36 Edg/112.0.1722.48" etag="6zdauY5hD6gB1_vrSNeu" version="21.3.2" type="github">
  <diagram name="第 1 页" id="RJ2dHB03EVct_RNEmqMP">
    <mxGraphModel dx="1096" dy="640" grid="1" gridSize="10" guides="1" tooltips="1" connect="1" arrows="1" fold="1" page="1" pageScale="1" pageWidth="827" pageHeight="1169" math="0" shadow="0">
      <root>
        <mxCell id="0" />
        <mxCell id="1" parent="0" />
        <mxCell id="CiZANrGHu97UipGxwwCd-1" value="movie" style="swimlane;childLayout=stackLayout;horizontal=1;startSize=50;horizontalStack=0;rounded=1;fontSize=14;fontStyle=0;strokeWidth=2;resizeParent=0;resizeLast=1;shadow=0;dashed=0;align=center;arcSize=4;whiteSpace=wrap;html=1;" vertex="1" parent="1">
          <mxGeometry x="160" y="220" width="160" height="160" as="geometry" />
        </mxCell>
        <mxCell id="CiZANrGHu97UipGxwwCd-2" value="movie_ID&lt;br&gt;title&lt;br&gt;type&lt;br&gt;runtime&lt;br&gt;release_date&lt;br&gt;director&lt;br&gt;starring" style="align=left;strokeColor=none;fillColor=none;spacingLeft=4;fontSize=12;verticalAlign=top;resizable=0;rotatable=0;part=1;html=1;" vertex="1" parent="CiZANrGHu97UipGxwwCd-1">
          <mxGeometry y="50" width="160" height="110" as="geometry" />
        </mxCell>
        <mxCell id="CiZANrGHu97UipGxwwCd-7" value="customer" style="swimlane;childLayout=stackLayout;horizontal=1;startSize=50;horizontalStack=0;rounded=1;fontSize=14;fontStyle=0;strokeWidth=2;resizeParent=0;resizeLast=1;shadow=0;dashed=0;align=center;arcSize=4;whiteSpace=wrap;html=1;" vertex="1" parent="1">
          <mxGeometry x="400" y="260" width="160" height="100" as="geometry" />
        </mxCell>
        <mxCell id="CiZANrGHu97UipGxwwCd-8" value="c_ID&lt;br&gt;name&lt;br&gt;phone" style="align=left;strokeColor=none;fillColor=none;spacingLeft=4;fontSize=12;verticalAlign=top;resizable=0;rotatable=0;part=1;html=1;" vertex="1" parent="CiZANrGHu97UipGxwwCd-7">
          <mxGeometry y="50" width="160" height="50" as="geometry" />
        </mxCell>
        <mxCell id="CiZANrGHu97UipGxwwCd-13" value="hall" style="swimlane;childLayout=stackLayout;horizontal=1;startSize=50;horizontalStack=0;rounded=1;fontSize=14;fontStyle=0;strokeWidth=2;resizeParent=0;resizeLast=1;shadow=0;dashed=0;align=center;arcSize=4;whiteSpace=wrap;html=1;" vertex="1" parent="1">
          <mxGeometry x="160" y="410" width="160" height="120" as="geometry" />
        </mxCell>
        <mxCell id="CiZANrGHu97UipGxwwCd-14" value="hall_ID&lt;br&gt;mode&lt;br&gt;capacity&lt;br&gt;location" style="align=left;strokeColor=none;fillColor=none;spacingLeft=4;fontSize=12;verticalAlign=top;resizable=0;rotatable=0;part=1;html=1;" vertex="1" parent="CiZANrGHu97UipGxwwCd-13">
          <mxGeometry y="50" width="160" height="70" as="geometry" />
        </mxCell>
        <mxCell id="CiZANrGHu97UipGxwwCd-15" value="ticket" style="swimlane;childLayout=stackLayout;horizontal=1;startSize=50;horizontalStack=0;rounded=1;fontSize=14;fontStyle=0;strokeWidth=2;resizeParent=0;resizeLast=1;shadow=0;dashed=0;align=center;arcSize=4;whiteSpace=wrap;html=1;" vertex="1" parent="1">
          <mxGeometry x="667" y="330" width="160" height="120" as="geometry" />
        </mxCell>
        <mxCell id="CiZANrGHu97UipGxwwCd-16" value="ticket_Id&lt;br&gt;seat_num" style="align=left;strokeColor=none;fillColor=none;spacingLeft=4;fontSize=12;verticalAlign=top;resizable=0;rotatable=0;part=1;html=1;" vertex="1" parent="CiZANrGHu97UipGxwwCd-15">
          <mxGeometry y="50" width="160" height="70" as="geometry" />
        </mxCell>
        <mxCell id="CiZANrGHu97UipGxwwCd-17" value="schedule" style="swimlane;childLayout=stackLayout;horizontal=1;startSize=50;horizontalStack=0;rounded=1;fontSize=14;fontStyle=0;strokeWidth=2;resizeParent=0;resizeLast=1;shadow=0;dashed=0;align=center;arcSize=4;whiteSpace=wrap;html=1;" vertex="1" parent="1">
          <mxGeometry x="400" y="370" width="160" height="130" as="geometry" />
        </mxCell>
        <mxCell id="CiZANrGHu97UipGxwwCd-18" value="schedule_ID&lt;br&gt;date&lt;br&gt;time&lt;br&gt;price&lt;br&gt;number" style="align=left;strokeColor=none;fillColor=none;spacingLeft=4;fontSize=12;verticalAlign=top;resizable=0;rotatable=0;part=1;html=1;" vertex="1" parent="CiZANrGHu97UipGxwwCd-17">
          <mxGeometry y="50" width="160" height="80" as="geometry" />
        </mxCell>
        <mxCell id="CiZANrGHu97UipGxwwCd-19" value="" style="edgeStyle=entityRelationEdgeStyle;fontSize=12;html=1;endArrow=ERzeroToMany;startArrow=ERzeroToOne;rounded=0;exitX=1;exitY=0.75;exitDx=0;exitDy=0;entryX=-0.014;entryY=0.147;entryDx=0;entryDy=0;entryPerimeter=0;" edge="1" parent="1" source="CiZANrGHu97UipGxwwCd-8" target="CiZANrGHu97UipGxwwCd-15">
          <mxGeometry width="100" height="100" relative="1" as="geometry">
            <mxPoint x="670" y="160" as="sourcePoint" />
            <mxPoint x="620" y="348" as="targetPoint" />
          </mxGeometry>
        </mxCell>
        <mxCell id="CiZANrGHu97UipGxwwCd-20" value="" style="edgeStyle=entityRelationEdgeStyle;fontSize=12;html=1;endArrow=ERzeroToMany;startArrow=ERzeroToOne;rounded=0;entryX=0;entryY=0.75;entryDx=0;entryDy=0;exitX=1;exitY=0.25;exitDx=0;exitDy=0;" edge="1" parent="1" source="CiZANrGHu97UipGxwwCd-18" target="CiZANrGHu97UipGxwwCd-16">
          <mxGeometry width="100" height="100" relative="1" as="geometry">
            <mxPoint x="550" y="420" as="sourcePoint" />
            <mxPoint x="670" y="420" as="targetPoint" />
          </mxGeometry>
        </mxCell>
        <mxCell id="CiZANrGHu97UipGxwwCd-21" value="" style="edgeStyle=entityRelationEdgeStyle;fontSize=12;html=1;endArrow=ERzeroToMany;startArrow=ERzeroToOne;rounded=0;exitX=1;exitY=1;exitDx=0;exitDy=0;entryX=0.013;entryY=0.077;entryDx=0;entryDy=0;entryPerimeter=0;" edge="1" parent="1" source="CiZANrGHu97UipGxwwCd-2" target="CiZANrGHu97UipGxwwCd-17">
          <mxGeometry width="100" height="100" relative="1" as="geometry">
            <mxPoint x="310" y="110" as="sourcePoint" />
            <mxPoint x="380" y="340" as="targetPoint" />
          </mxGeometry>
        </mxCell>
        <mxCell id="CiZANrGHu97UipGxwwCd-22" value="" style="edgeStyle=entityRelationEdgeStyle;fontSize=12;html=1;endArrow=ERzeroToMany;startArrow=ERzeroToOne;rounded=0;entryX=0;entryY=0.5;entryDx=0;entryDy=0;exitX=1;exitY=0;exitDx=0;exitDy=0;" edge="1" parent="1" source="CiZANrGHu97UipGxwwCd-14" target="CiZANrGHu97UipGxwwCd-18">
          <mxGeometry width="100" height="100" relative="1" as="geometry">
            <mxPoint x="160" y="380" as="sourcePoint" />
            <mxPoint x="230" y="290" as="targetPoint" />
          </mxGeometry>
        </mxCell>
      </root>
    </mxGraphModel>
  </diagram>
</mxfile>
